<svg xmlns="http://www.w3.org/2000/svg" viewBox="0 0 334.17 251.08"><title>Asset 2</title><g id="Layer_2" data-name="Layer 2"><g id="Layer_2-2" data-name="Layer 2"><path d="M22.38,250.05c.57,0,1.16-4.68,3.56-5,1.53-.22,2.32,1.5,4.47,1.4,2-.1,2.2-1.59,3.91-1.68,2.37-.12,2.88,2.7,6.14,3.91,2,.75,2.59-.05,6.69,0,1,0,1.81.07,8.1,1.12,8.34,1.38,9.45,1.7,10.32.83,1.81-1.79-1-5.13,1.12-8.09,1.61-2.27,4.06-1.44,5.58-3.91s.06-5,1.12-5.58c1.41-.76,3.74,3.94,8.93,5.86,3.81,1.41,9.05,1.28,11.16-1.39,1.49-1.9.1-3.42,1.11-6.7s3.82-5.19,9.49-9.21c5.24-3.71,7.86-5.57,11.72-6.42,3.4-.74,4.06,0,8.1-1.11,3.67-1,4.55-2,8.09-2.79,2.84-.63,3.24-.2,7.26-.56,6.3-.58,10.55-1,12.27-3.63,2.1-3.24-.67-8.14,0-8.37s2.49,2.91,3.63,6.69c1.2,4,.87,6.57,1.68,6.7s2.14-2.49,2.79-4.74c1.15-4-.17-5.55,1.11-8.37,1.17-2.57,3.82-4.72,5-4.19,1.66.74-.68,6,2.51,10.6.27.4,1.54,2.22,2.51,2,1.68-.46.56-6.68,2.79-7.54,1.44-.55,3.14,1.59,4.19.84.48-.34.51-1.16.56-2.79.06-2.31-.31-3.5,0-3.63.56-.24,1.9,3.92,3.62,3.91,2.24,0,2.53-7,5.86-7.81,2.67-.63,4.68,3.36,7,2.51,2-.75,1.06-4.08,3.63-6.14,2.3-1.84,4.22-.1,8.09-1.4,4.77-1.6,4.35-5.09,8.09-5.86,4.18-.86,9.09,2.57,11.45,5.86,1.39,1.95,1.28,3,3.07,5,2.11,2.4,3.71,2.52,6.14,4.18,1.72,1.18,1.9,1.78,8.37,10.88,3.76,5.31,4.5,6.23,6.14,7,1.85.86,3.09.69,7.53,1.12,3,.29,6.52.8,8.09,1.11,5.67,1.14,8.23,4.45,12.56,7.54,2.34,1.67,13.24,9.45,24.28,7,8.77-2,14.87-9.77,16.19-11.45a38.59,38.59,0,0,0,2.79-4.18c20.45-36.29,10.6-98,10.6-98a110.21,110.21,0,0,0-12-46.32C284.42,1.32,185.83,0,176.08,0,154,0,66.78,4,22.38,76.69-26.64,156.94,19.77,250.2,22.38,250.05Z" style="fill:none"/></g></g></svg>